<svg width="24" height="24" viewBox="0 0 24 24" fill="none" xmlns="http://www.w3.org/2000/svg">
<path d="M0 5.59223C0 2.50373 2.50373 0 5.59223 0H18.4078C21.4963 0 24 2.50373 24 5.59223V18.4078C24 21.4963 21.4963 24 18.4078 24H5.59223C2.50373 24 0 21.4963 0 18.4078V5.59223Z" fill="white"/>
<path d="M13.5121 12.0197C13.9141 11.8445 14.3103 11.6132 14.7034 11.4165C15.097 11.2202 15.449 11.0012 15.8404 10.8022C16.2315 10.6028 16.6377 10.4034 17.0191 10.1875C17.4001 9.97125 17.7983 9.81489 18.1751 9.59053C18.5518 9.36618 18.945 9.22442 19.318 8.98162C19.691 8.73882 20.2694 8.68581 20.3317 8.21635C20.394 7.74689 20.3637 7.16295 19.856 6.99852C19.3479 6.83448 19.1395 6.58976 18.6996 6.4019C18.2597 6.21404 17.9368 5.97508 17.5209 5.78722C17.105 5.59936 16.7868 5.36233 16.3843 5.17255C15.9819 4.98277 15.6371 4.76264 15.2414 4.56363C14.8453 4.36502 14.453 4.1641 14.0627 3.94896C13.6729 3.73382 13.3134 3.55864 12.9123 3.34696C12.5107 3.13567 12.1448 2.91285 11.6692 2.82948C11.1935 2.74611 10.5279 2.81795 10.1318 3.05653C9.73527 3.29548 9.35136 3.41803 8.97544 3.65353C8.59952 3.88903 8.16089 4.01119 7.87127 4.29779C8.39662 4.58208 8.9384 4.82526 9.46039 5.11415C9.98238 5.40267 10.4955 5.66852 11.0251 5.9528C11.5547 6.23709 12.0767 6.46913 12.5986 6.78338C13.1211 7.09725 13.6544 7.2586 14.176 7.61051C14.6975 7.96241 15.3222 7.5767 15.7432 7.2175C13.8712 6.24132 11.9832 5.27474 10.1444 4.25937C11.854 3.45376 13.4204 4.90708 14.8722 5.59245C16.3237 6.27743 17.7432 7.13029 19.153 7.87059C16.884 9.03233 14.6491 10.2625 12.3755 11.405C12.3755 12.6086 12.3755 13.8126 12.3755 15.0162C14.2585 14.0323 16.1339 13.0439 18.0164 12.0581C18.0985 12.4926 18.1865 13.1825 17.7314 13.3731C17.2763 13.5636 17.0255 13.7707 16.6146 13.9674C16.2033 14.1637 15.8893 14.3562 15.5003 14.564C15.1109 14.7719 14.7506 14.929 14.3646 15.1411C13.9781 15.3531 13.6237 15.5437 13.2271 15.755C12.8306 15.9663 12.3027 16.075 12.3755 16.5913C12.4484 17.1076 12.3292 17.6831 12.3755 18.2048C12.4218 18.7265 12.3061 19.274 12.4176 19.7799C13.9263 19.0112 15.4005 18.1729 16.9219 17.4365C16.9219 17.8207 16.9219 18.2048 16.9219 18.589C17.843 18.1745 18.7101 17.6025 19.6291 17.1795C20.5476 16.7561 21.552 16.0588 21.4262 15.0162C20.3094 15.6163 19.1921 16.2087 18.0585 16.7834C18.0585 16.3992 18.0585 16.015 18.0585 15.6309C16.5165 16.3558 15.0482 17.2413 13.5121 17.9743C13.5121 17.5775 13.5121 17.1802 13.5121 16.7834C13.9221 16.6178 14.3136 16.3865 14.7039 16.1802C15.0937 15.9743 15.5058 15.7888 15.8821 15.566C16.2589 15.3427 16.6714 15.2041 17.0377 14.9682C17.4043 14.7327 17.8632 14.6044 18.2163 14.3535C18.57 14.103 19.1711 14.0723 19.1951 13.5948C19.2191 13.1172 19.1824 12.4184 19.1951 11.9044C19.2077 11.3904 19.1854 10.7757 19.1951 10.2525C17.2751 11.186 15.4199 12.2452 13.5121 13.2106C13.5121 12.8137 13.5121 12.4165 13.5121 12.0197Z" fill="black"/>
<path d="M13.47 8.40843C12.9716 8.19176 12.5102 7.90133 12.0257 7.652C11.5416 7.40229 11.0512 7.16525 10.5751 6.90133C10.099 6.6374 9.61488 6.40536 9.13751 6.13874C8.65972 5.87251 8.16804 5.66314 7.69025 5.385C7.21204 5.10724 6.71826 4.74957 6.23289 5.10762C5.7471 5.46529 5.27268 5.55711 4.78774 5.86329C4.30237 6.16909 3.83005 6.35465 3.3249 6.60282C3.58337 6.87021 4.01023 7.03425 4.36762 7.22633C4.72501 7.41842 5.0601 7.60436 5.42633 7.79683C5.79299 7.98892 6.11755 8.1545 6.49473 8.35849C6.87233 8.5621 7.15395 8.70924 7.56691 8.91669C7.97987 9.12376 7.80012 9.80029 7.82917 10.214C6.30698 9.45761 4.81805 8.60513 3.28281 7.87059C3.2626 8.39652 3.30933 8.96203 3.28281 9.48412C3.25629 10.0062 3.33416 10.5898 3.28281 11.0976C3.23145 11.6055 3.7888 11.6754 4.16345 11.9075C4.53811 12.1391 4.91823 12.274 5.29373 12.4895C5.66923 12.7046 6.02957 12.8802 6.41054 13.0838C6.79193 13.287 7.1409 13.4734 7.53113 13.6747C7.92178 13.8756 8.25139 14.0558 8.66141 14.2567C9.07142 14.4576 9.31305 14.6674 9.77821 14.851C10.2438 15.0343 10.096 15.7273 10.1024 16.1687C7.7976 15.0865 5.60524 13.7258 3.28281 12.6727C3.35605 13.7772 2.98603 15.496 3.81743 16.3339C4.64882 17.1718 5.63597 17.3658 6.59786 17.9455C7.56018 18.5248 8.5006 18.9386 9.46754 19.4757C10.4341 20.0127 11.3871 20.4872 12.3755 20.9709C12.3755 20.574 12.3755 20.1768 12.3755 19.7799C10.9788 19.0089 9.37788 18.3024 8.00724 17.5045C6.63659 16.7066 4.56168 16.2079 4.46149 14.4784C6.75067 15.579 8.95566 16.8787 11.2389 17.9743C11.2516 17.4434 11.2217 16.8464 11.2389 16.3224C11.2562 15.7984 11.2057 15.2117 11.2389 14.7089C11.2722 14.206 10.685 14.1695 10.3225 13.9317C9.96007 13.6939 9.57994 13.546 9.20571 13.3374C8.83105 13.1291 8.46019 12.9547 8.08511 12.7465C7.70962 12.5387 7.33791 12.3689 6.95484 12.1645C6.57176 11.9601 6.23836 11.768 5.83803 11.5702C5.43728 11.3727 5.15229 11.1752 4.71744 10.9793C4.28259 10.7834 4.39498 10.0884 4.46149 9.6762C5.97105 10.4442 7.45241 11.2698 8.96576 12.0197C8.90767 11.3812 9.04322 10.6939 8.96576 10.0604C8.8883 9.42687 9.59509 9.37962 10.0603 9.09994C9.43892 8.58784 8.57048 8.28166 7.83969 7.86099C7.10849 7.4407 6.31287 7.07728 5.59808 6.64124C6.05693 6.48181 6.49978 5.94589 6.9582 6.20674C7.41621 6.46798 7.87127 6.66852 8.32464 6.919C8.77801 7.16948 9.22381 7.40267 9.67802 7.64316C10.1327 7.88327 10.597 8.10724 11.0411 8.35849C11.4856 8.60936 11.9335 8.80797 12.3755 9.06153C12.7043 8.82065 13.2187 8.70809 13.47 8.40843Z" fill="black"/>
</svg>
