<svg width="16" height="16" viewBox="0 0 16 16" fill="none" xmlns="http://www.w3.org/2000/svg">
<path d="M0 3.55556C0 1.59188 1.59188 0 3.55556 0H12.4444C14.4081 0 16 1.59188 16 3.55556V12.4444C16 14.4081 14.4081 16 12.4444 16H3.55556C1.59188 16 0 14.4081 0 12.4444V3.55556Z" fill="black"/>
<path d="M6.55556 5.49219L5.72483 5.29644V4.76172L7.53429 4.7092H8.65625C9.29601 4.7092 9.80686 4.85402 10.1888 5.14366C10.5707 5.43012 10.7617 5.85663 10.7617 6.42318C10.7617 7.26345 10.3368 7.79181 9.48698 8.00825C9.98987 8.12601 10.3686 8.32176 10.6233 8.59549C10.8779 8.86603 11.0052 9.20023 11.0052 9.59809C11.0052 10.2697 10.7951 10.7646 10.375 11.0829C9.95486 11.398 9.3342 11.5556 8.51302 11.5556H5.72483V10.9683L6.55556 10.7726V5.49219ZM8.26476 7.6454C8.72309 7.6454 9.08275 7.5531 9.34375 7.36849C9.60475 7.1807 9.73524 6.89742 9.73524 6.51866C9.73524 6.18764 9.63021 5.93461 9.42014 5.75955C9.21325 5.58131 8.94271 5.49219 8.60851 5.49219H7.53429V7.6454H8.26476ZM8.56076 10.7726C9.02228 10.7726 9.37399 10.6771 9.61589 10.4861C9.85778 10.292 9.97873 10.0135 9.97873 9.65061C9.97873 9.18273 9.8355 8.8533 9.54905 8.66233C9.26259 8.47135 8.83449 8.37587 8.26476 8.37587H7.53429V10.7726H8.56076Z" fill="white"/>
</svg>
