<svg width="24" height="24" viewBox="0 0 24 24" fill="none" xmlns="http://www.w3.org/2000/svg">
<rect width="24" height="24" rx="5" fill="white"/>
<path d="M14.2169 19.6628C15.3376 19.2236 16.124 18.728 16.8368 17.7846C17.5492 16.8409 17.7912 15.6687 17.7268 14.4557C17.6625 13.2426 17.7682 11.5878 17.7268 10.3618C17.6855 9.13581 17.8656 7.57368 17.4753 6.48414C17.0846 5.39496 16.5276 4.7737 15.5436 4.05045C14.5596 3.3272 13.291 3.00508 12.0024 3.00005C10.7138 2.99503 9.41175 3.34336 8.43818 4.06661C7.46418 4.7895 6.8838 5.39675 6.50064 6.49527C6.11706 7.59379 6.33183 9.17028 6.27793 10.3977C6.22403 11.6252 6.34938 13.2778 6.27793 14.4916C6.20648 15.7054 6.46846 16.871 7.18465 17.8062C7.90041 18.7416 8.65504 19.244 9.78781 19.6628C9.62402 19.4775 9.66329 19.2419 9.66246 19.0164C8.6613 18.5556 8.04791 18.0565 7.48006 17.1573C6.91221 16.258 6.85581 15.06 6.90469 13.9529C6.95358 12.8458 6.86876 11.3684 6.90469 10.2541C6.94063 9.13976 6.7785 7.71804 7.09983 6.72295C7.42156 5.72821 7.92841 5.1504 8.81633 4.49934C9.70466 3.84827 10.8387 3.53944 12.0024 3.53872C13.1661 3.538 14.3277 3.8594 15.2093 4.51729C16.0914 5.17482 16.5865 5.7652 16.9003 6.76281C17.2141 7.76006 17.0666 9.17459 17.1001 10.29C17.1335 11.4054 17.0508 12.8813 17.1001 13.9888C17.1494 15.0963 17.0817 16.2803 16.5055 17.1766C15.9293 18.0733 15.3347 18.5448 14.3423 19.0164C14.3465 19.2415 14.3665 19.4742 14.2169 19.6628Z" fill="black"/>
<path d="M13.8827 17.8313C14.7555 17.4072 15.3134 16.8642 15.5632 15.9718C15.8131 15.0794 15.7107 13.8348 15.7212 12.8397C15.7316 11.8446 15.7203 10.5259 15.7212 9.53586C15.722 8.54579 15.8223 7.37437 15.4195 6.52723C15.0163 5.68045 14.4388 5.24449 13.5354 4.84265C12.6325 4.4408 11.3434 4.45409 10.4434 4.85629C9.54379 5.25886 8.96132 5.69661 8.56687 6.54734C8.17201 7.39772 8.28399 8.58026 8.28357 9.57177C8.28316 10.5633 8.27522 11.8816 8.28357 12.8756C8.29193 13.8696 8.19416 15.1107 8.45113 15.9995C8.7081 16.8883 9.25046 17.4111 10.1221 17.8313C10.3795 17.4384 10.1359 17.2485 9.81915 17.0143C9.50284 16.7802 9.39922 16.5583 9.20199 16.2519C9.00435 15.946 8.96048 15.5933 8.95212 15.2098C8.94377 14.8263 8.9563 14.3224 8.95212 13.917C8.94795 13.5116 8.95421 13.0752 8.95212 12.6601C8.95003 12.245 8.9538 11.7853 8.95212 11.3673C8.95045 10.9493 8.95463 10.5263 8.95212 10.1104C8.94962 9.69458 8.95714 9.22559 8.95212 8.81764C8.94711 8.40969 8.96341 7.94823 8.95212 7.56075C8.94084 7.17327 9.1038 6.85869 9.27345 6.54411C9.44351 6.22989 9.61942 6.0647 9.90272 5.82805C10.186 5.59139 10.448 5.442 10.8036 5.30949C11.1588 5.17662 11.6029 5.08541 12.002 5.08325C12.4014 5.0811 12.8736 5.18883 13.2271 5.32314C13.5802 5.4578 13.8501 5.60252 14.1229 5.846C14.3962 6.08912 14.5842 6.24856 14.7472 6.56638C14.9106 6.88383 15.0551 7.21277 15.0526 7.59666C15.0501 7.98055 15.0535 8.44703 15.0526 8.85355C15.0518 9.26006 15.0531 9.73085 15.0526 10.1463C15.0522 10.5618 15.0522 10.9849 15.0526 11.4032C15.0531 11.8216 15.0518 12.2795 15.0526 12.696C15.0535 13.1126 15.0505 13.5446 15.0526 13.9529C15.0547 14.3612 15.0476 14.8557 15.0526 15.2457C15.0576 15.6357 14.9632 15.9492 14.7731 16.2623C14.5826 16.5751 14.4852 16.7884 14.1438 17.0143C13.802 17.2398 13.6809 17.4769 13.8827 17.8313Z" fill="black"/>
<path d="M14.593 8.63808C12.9676 8.15041 11.0363 8.15077 9.41175 8.63808C9.41175 8.81764 9.41175 8.99719 9.41175 9.17675C11.0501 8.6959 12.9546 8.70308 14.593 9.17675C14.593 8.99719 14.593 8.81764 14.593 8.63808Z" fill="black"/>
<path d="M14.593 10.7568C13.0131 10.0803 10.9908 10.0806 9.41175 10.7568C9.43473 10.9579 9.36286 11.1813 9.45354 11.3673C10.9603 10.5877 13.0432 10.5909 14.5512 11.3673C14.6415 11.1813 14.5704 10.9583 14.593 10.7568Z" fill="black"/>
<path d="M18.242 10.8764C18.0406 11.8349 18.8354 12.5251 19.0923 13.3898C19.3493 14.2549 19.4805 15.4134 19.2699 16.2846C19.0589 17.1558 18.7238 17.902 18.1768 18.6131C17.6299 19.3241 17.0863 19.792 16.2936 20.2984C15.5006 20.8044 14.6465 21.097 13.6767 21.3172C12.7069 21.5377 11.2595 21.533 10.2901 21.3139C9.32108 21.0945 8.47704 20.79 7.68606 20.284C6.89466 19.7784 6.35063 19.3065 5.80869 18.5937C5.26675 17.8809 4.92537 17.1213 4.73149 16.2516C4.53803 15.3818 4.64416 14.2108 4.90824 13.3503C5.17232 12.4899 6.01803 11.8061 5.73473 10.8646C3.09689 13.5895 3.54273 17.7986 6.55997 20.2104C9.57764 22.6222 14.4493 22.582 17.4469 20.1763C20.4449 17.7706 20.9095 13.6064 18.27 10.8646L18.242 10.8764Z" fill="black"/>
<path d="M14.593 13.6656C14.7117 13.1844 14.5596 12.7463 14.0811 12.5254C13.6027 12.305 13.3211 12.1405 12.7971 12.0489C12.2736 11.9573 11.6915 11.957 11.1696 12.0521C10.6477 12.1477 10.372 12.3211 9.90063 12.5416C9.42888 12.7617 9.30353 13.193 9.41175 13.6656C10.5938 12.1602 13.4055 12.1706 14.593 13.6656Z" fill="black"/>
<path d="M12.2531 13.8093C11.8566 13.7604 11.3188 13.8696 11.0309 14.0876C10.7434 14.3056 10.5002 14.5691 10.4564 14.8866C10.4125 15.204 10.4045 15.6608 10.7175 15.919C11.0301 16.1776 11.1094 16.4024 10.9152 16.7533C10.7204 17.1037 10.7288 17.4312 10.5537 17.7713C10.3782 18.1114 10.3949 18.4307 10.2048 18.7643C10.0143 19.0975 10.0322 19.5306 10.4973 19.6276C10.9619 19.7249 11.3042 19.7867 11.7655 19.8305C12.2268 19.8743 12.7135 19.7418 13.1306 19.6987C13.5471 19.6552 14.0252 19.4947 13.9153 19.0961C13.8054 18.6978 13.6529 18.4432 13.5476 18.0834C13.4418 17.7239 13.2948 17.4155 13.2112 17.0797C13.1272 16.7443 12.7796 16.3762 13.0783 16.1345C13.3771 15.8928 13.512 15.575 13.5492 15.2464C13.5864 14.9182 13.4657 14.535 13.2037 14.2851C12.9417 14.0351 12.6108 13.8531 12.2531 13.8093Z" fill="black"/>
</svg>
