<svg width="50" height="50" viewBox="0 0 50 50" fill="none" xmlns="http://www.w3.org/2000/svg">
<rect width="50" height="50" rx="12" fill="white"/>
<path d="M27.964 37.9406C29.715 37.1778 30.9437 36.317 32.0575 34.6785C33.1707 33.0394 33.5487 31.0036 33.4482 28.8967C33.3476 26.7898 33.5128 23.9157 33.4482 21.7863C33.3835 19.6569 33.6649 16.9438 33.0551 15.0514C32.4447 13.1597 31.5744 12.0806 30.0369 10.8245C28.4993 9.5683 26.5172 9.00883 24.5037 9.00009C22.4902 8.99136 20.4559 9.59637 18.9347 10.8525C17.4128 12.1081 16.5059 13.1628 15.9072 15.0707C15.3079 16.9787 15.6435 19.7168 15.5593 21.8487C15.475 23.9805 15.6709 26.8509 15.5593 28.9591C15.4476 31.0672 15.857 33.0918 16.976 34.716C18.0944 36.3407 19.2735 37.2133 21.0435 37.9406C20.7875 37.6187 20.8489 37.2096 20.8476 36.8179C19.2833 36.0177 18.3249 35.1507 17.4376 33.5889C16.5503 32.0271 16.4622 29.9464 16.5386 28.0235C16.615 26.1006 16.4824 23.5346 16.5386 21.5992C16.5947 19.6638 16.3414 17.1945 16.8435 15.4662C17.3462 13.7385 18.1381 12.7349 19.5255 11.6041C20.9135 10.4733 22.6854 9.93692 24.5037 9.93567C26.322 9.93442 28.137 10.4926 29.5146 11.6353C30.8928 12.7773 31.6665 13.8027 32.1568 15.5354C32.6471 17.2675 32.4166 19.7243 32.4689 21.6616C32.5211 23.5988 32.3918 26.1623 32.4689 28.0858C32.5459 30.0094 32.4401 32.0658 31.5398 33.6226C30.6395 35.18 29.7104 35.9989 28.1598 36.8179C28.1664 37.209 28.1977 37.6131 27.964 37.9406Z" fill="black"/>
<path d="M27.4417 34.7596C28.8055 34.023 29.6771 33.0799 30.0676 31.53C30.458 29.9801 30.298 27.8183 30.3143 26.09C30.3307 24.3616 30.313 22.0713 30.3143 20.3518C30.3157 18.6322 30.4723 16.5976 29.843 15.1262C29.2129 13.6555 28.3107 12.8983 26.8991 12.2004C25.4883 11.5024 23.4741 11.5255 22.0678 12.2241C20.6622 12.9233 19.7521 13.6836 19.1357 15.1612C18.5188 16.6381 18.6937 18.692 18.6931 20.4141C18.6924 22.1362 18.68 24.4259 18.6931 26.1523C18.7061 27.8788 18.5534 30.0343 18.9549 31.578C19.3564 33.1217 20.2038 34.0299 21.5658 34.7596C21.9679 34.0773 21.5873 33.7473 21.0924 33.3407C20.5982 32.934 20.4363 32.5485 20.1281 32.0165C19.8193 31.4851 19.7508 30.8726 19.7377 30.2065C19.7246 29.5404 19.7442 28.6653 19.7377 27.9611C19.7312 27.2569 19.741 26.4991 19.7377 25.7781C19.7344 25.0571 19.7403 24.2587 19.7377 23.5327C19.7351 22.8067 19.7416 22.072 19.7377 21.3497C19.7338 20.6274 19.7455 19.8129 19.7377 19.1043C19.7299 18.3958 19.7553 17.5943 19.7377 16.9213C19.7201 16.2483 19.9747 15.7019 20.2398 15.1556C20.5055 14.6098 20.7803 14.3229 21.223 13.9119C21.6656 13.5008 22.075 13.2414 22.6306 13.0112C23.1856 12.7804 23.8796 12.622 24.5031 12.6183C25.1272 12.6145 25.865 12.8017 26.4173 13.0349C26.969 13.2688 27.3907 13.5202 27.8171 13.9431C28.2441 14.3653 28.5379 14.6422 28.7925 15.1942C29.0478 15.7456 29.2737 16.3169 29.2697 16.9837C29.2658 17.6504 29.271 18.4606 29.2697 19.1667C29.2684 19.8727 29.2704 20.6904 29.2697 21.4121C29.2691 22.1337 29.2691 22.8685 29.2697 23.5951C29.2704 24.3217 29.2684 25.117 29.2697 25.8405C29.271 26.564 29.2665 27.3143 29.2697 28.0235C29.273 28.7326 29.2619 29.5915 29.2697 30.2689C29.2776 30.9462 29.13 31.4907 28.833 32.0346C28.5353 32.5779 28.3831 32.9483 27.8497 33.3407C27.3157 33.7324 27.1263 34.144 27.4417 34.7596Z" fill="black"/>
<path d="M28.5516 18.7925C26.0119 17.9454 22.9943 17.9461 20.4559 18.7925C20.4559 19.1043 20.4559 19.4162 20.4559 19.728C23.0158 18.8929 25.9916 18.9053 28.5516 19.728C28.5516 19.4162 28.5516 19.1043 28.5516 18.7925Z" fill="black"/>
<path d="M28.5516 22.4724C26.083 21.2973 22.9231 21.2979 20.4559 22.4724C20.4918 22.8217 20.3795 23.2096 20.5211 23.5327C22.8754 22.1786 26.13 22.1842 28.4863 23.5327C28.6273 23.2096 28.5163 22.8223 28.5516 22.4724Z" fill="black"/>
<path d="M34.2532 22.6801C33.9385 24.3448 35.1803 25.5436 35.5818 27.0455C35.9833 28.548 36.1883 30.5601 35.8593 32.0733C35.5296 33.5864 35.0059 34.8825 34.1513 36.1175C33.2967 37.3524 32.4473 38.1651 31.2088 39.0446C29.9696 39.9234 28.6351 40.4317 27.1198 40.8141C25.6045 41.197 23.3429 41.1889 21.8282 40.8084C20.3142 40.4273 18.9954 39.8984 17.7595 39.0196C16.5229 38.1414 15.6729 37.3219 14.8261 36.0838C13.9793 34.8457 13.4459 33.5265 13.143 32.0159C12.8407 30.5052 13.0065 28.4713 13.4191 26.9769C13.8317 25.4825 15.1532 24.2949 14.7105 22.6595C10.5889 27.3923 11.2855 34.7029 16 38.8918C20.7151 43.0806 28.327 43.0108 33.0107 38.8325C37.6952 34.6542 38.4212 27.4216 34.2969 22.6595L34.2532 22.6801Z" fill="black"/>
<path d="M28.5516 27.5245C28.737 26.6887 28.4993 25.9278 27.7518 25.5442C27.0042 25.1612 26.5642 24.8756 25.7455 24.7165C24.9274 24.5575 24.018 24.5569 23.2025 24.7221C22.3871 24.888 21.9562 25.1893 21.2197 25.5723C20.4826 25.9546 20.2868 26.7037 20.4559 27.5245C22.3029 24.9099 26.6961 24.928 28.5516 27.5245Z" fill="black"/>
<path d="M24.8954 27.774C24.2759 27.6892 23.4356 27.8788 22.9858 28.2574C22.5366 28.636 22.1566 29.0938 22.0881 29.6451C22.0195 30.1965 22.0071 30.9899 22.4961 31.4383C22.9845 31.8874 23.1085 32.2779 22.8049 32.8872C22.5007 33.496 22.5137 34.0648 22.2402 34.6555C21.966 35.2461 21.9921 35.8006 21.695 36.38C21.3973 36.9589 21.4254 37.7111 22.152 37.8795C22.878 38.0485 23.4128 38.1558 24.1335 38.2319C24.8543 38.308 25.6149 38.0778 26.2665 38.003C26.9174 37.9275 27.6643 37.6487 27.4926 36.9564C27.3209 36.2647 27.0826 35.8224 26.9181 35.1975C26.7529 34.5731 26.5231 34.0374 26.3925 33.4542C26.2613 32.8716 25.7181 32.2323 26.1849 31.8126C26.6517 31.3928 26.8626 30.8408 26.9207 30.2701C26.9788 29.7 26.7901 29.0345 26.3807 28.6004C25.9714 28.1663 25.4543 27.8501 24.8954 27.774Z" fill="black"/>
</svg>
