<svg width="32" height="32" viewBox="0 0 32 32" fill="none" xmlns="http://www.w3.org/2000/svg">
<path d="M18.047 16.2397C18.7548 15.9313 19.4523 15.5241 20.1445 15.1778C20.8375 14.8321 21.4571 14.4466 22.1464 14.0962C22.835 13.7451 23.5502 13.3941 24.2217 13.014C24.8925 12.6331 25.5936 12.3578 26.257 11.9628C26.9203 11.5678 27.6126 11.3182 28.2693 10.8907C28.926 10.4632 29.9444 10.3699 30.054 9.54331C30.1637 8.71674 30.1104 7.68861 29.2165 7.3991C28.3219 7.11028 27.955 6.67941 27.1805 6.34864C26.406 6.01788 25.8375 5.59716 25.1052 5.26639C24.3729 4.93563 23.8126 4.51829 23.104 4.18414C22.3955 3.85 21.7884 3.46242 21.0917 3.11204C20.3943 2.76234 19.7035 2.40858 19.0164 2.02979C18.3301 1.651 17.6971 1.34256 16.9908 0.969862C16.2837 0.597838 15.6396 0.205523 14.8021 0.0587426C13.9646 -0.0880376 12.7928 0.0384504 12.0953 0.458499C11.3971 0.879223 10.7212 1.095 10.0593 1.50963C9.39745 1.92427 8.62515 2.13937 8.11522 2.64397C9.04021 3.14451 9.9941 3.57267 10.9132 4.08133C11.8322 4.58931 12.7357 5.05739 13.6681 5.55793C14.6005 6.05847 15.5196 6.46702 16.4386 7.02032C17.3584 7.57294 18.2975 7.85703 19.2158 8.47662C20.1341 9.09621 21.234 8.4171 21.9752 7.78466C18.6792 6.06591 15.355 4.36407 12.1176 2.57633C15.1275 1.1579 17.8854 3.71675 20.4417 4.92346C22.9973 6.12949 25.4966 7.63111 27.9788 8.93455C23.9838 10.98 20.0489 13.1459 16.0458 15.1575C16.0458 17.2767 16.0458 19.3965 16.0458 21.5157C19.3611 19.7834 22.663 18.043 25.9776 16.3074C26.1221 17.0724 26.277 18.2872 25.4758 18.6227C24.6746 18.9582 24.2328 19.3228 23.5095 19.6691C22.7853 20.0148 22.2324 20.3536 21.5476 20.7196C20.862 21.0855 20.2275 21.3622 19.5479 21.7355C18.8675 22.1089 18.2434 22.4444 17.5452 22.8164C16.847 23.1885 15.9176 23.3799 16.0458 24.289C16.174 25.1981 15.9643 26.2113 16.0458 27.1299C16.1273 28.0484 15.9235 29.0123 16.1199 29.9031C18.7763 28.5497 21.3719 27.0737 24.0505 25.7771C24.0505 26.4535 24.0505 27.1299 24.0505 27.8063C25.6722 27.0764 27.199 26.0693 28.817 25.3245C30.4343 24.5791 32.2027 23.3515 31.9811 21.5157C30.0148 22.5722 28.0477 23.6153 26.0517 24.6272C26.0517 23.9508 26.0517 23.2744 26.0517 22.598C23.3368 23.8743 20.7515 25.4334 18.047 26.724C18.047 26.0253 18.047 25.3259 18.047 24.6272C18.7689 24.3356 19.4582 23.9284 20.1453 23.5652C20.8316 23.2027 21.5572 22.876 22.2198 22.4836C22.8832 22.0907 23.6095 21.8465 24.2543 21.4312C24.8999 21.0165 25.7078 20.7906 26.3296 20.3489C26.9522 19.9079 28.0106 19.8538 28.0529 19.013C28.0951 18.1722 28.0306 16.9418 28.0529 16.0368C28.0751 15.1318 28.0358 14.0495 28.0529 13.1283C24.6724 14.7719 21.406 16.6368 18.047 18.3366C18.047 17.6379 18.047 16.9385 18.047 16.2397Z" fill="black"/>
<path d="M17.9729 9.88152C17.0953 9.50002 16.283 8.98866 15.4299 8.54967C14.5775 8.11001 13.7141 7.69267 12.8758 7.22797C12.0375 6.76328 11.1852 6.35473 10.3447 5.88531C9.50344 5.41656 8.63775 5.04792 7.79651 4.5582C6.95454 4.06916 6.08514 3.43942 5.23056 4.06983C4.37524 4.69957 3.53994 4.86123 2.6861 5.40032C1.83152 5.93874 0.999924 6.26545 0.110513 6.70241C0.565595 7.17318 1.31715 7.46201 1.94641 7.80021C2.57567 8.13842 3.16564 8.4658 3.81047 8.80468C4.45603 9.14288 5.02748 9.43441 5.69157 9.79358C6.35641 10.1521 6.85225 10.4111 7.57935 10.7764C8.30644 11.141 7.98996 12.3321 8.0411 13.0606C5.36101 11.7288 2.73947 10.2278 0.0363951 8.93455C0.000818591 9.86055 0.0830892 10.8562 0.0363951 11.7755C-0.0102991 12.6947 0.126819 13.7222 0.0363951 14.6164C-0.0540285 15.5106 0.927289 15.6337 1.58694 16.0422C2.24658 16.4501 2.91587 16.6875 3.577 17.067C4.23812 17.4458 4.87257 17.7549 5.54334 18.1134C6.21484 18.4712 6.82928 18.7993 7.51635 19.1537C8.20416 19.5075 8.7845 19.8247 9.50641 20.1784C10.2283 20.5322 10.6537 20.9015 11.4727 21.2248C12.2925 21.5475 12.0323 22.7677 12.0435 23.5449C7.98551 21.6395 4.12547 19.2437 0.0363951 17.3896C0.16536 19.3343 -0.486134 22.3605 0.977689 23.8358C2.44151 25.311 4.17957 25.6526 5.87316 26.6733C7.56749 27.6933 9.22328 28.4218 10.9258 29.3674C12.6275 30.313 14.3055 31.1484 16.0458 32C16.0458 31.3013 16.0458 30.6019 16.0458 29.9031C13.5866 28.5456 10.7679 27.3017 8.35462 25.8968C5.94135 24.4919 2.28809 23.6139 2.11169 20.5687C6.14221 22.5066 10.0245 24.7949 14.0446 26.724C14.0669 25.7892 14.0142 24.7381 14.0446 23.8155C14.075 22.8929 13.9861 21.86 14.0446 20.9746C14.1032 20.0892 13.0692 20.0249 12.4311 19.6062C11.7929 19.1875 11.1237 18.9271 10.4647 18.5598C9.8051 18.1932 9.15212 17.8861 8.49174 17.5195C7.83061 17.1536 7.17615 16.8546 6.50168 16.4947C5.82721 16.1349 5.24019 15.7967 4.53534 15.4483C3.82974 15.1007 3.32796 14.753 2.56232 14.408C1.79669 14.0631 1.99458 12.8394 2.11169 12.1137C4.76955 13.4658 7.37775 14.9194 10.0423 16.2397C9.93999 15.1155 10.1787 13.9055 10.0423 12.7901C9.9059 11.6747 11.1503 11.5915 11.9693 11.099C10.8754 10.1974 9.34631 9.6583 8.05963 8.91764C6.77221 8.17765 5.37138 7.53777 4.11287 6.77005C4.92075 6.48934 5.70047 5.54575 6.50761 6.00503C7.31401 6.46499 8.11522 6.81807 8.91347 7.25909C9.71171 7.7001 10.4966 8.11068 11.2963 8.53411C12.0968 8.95687 12.9143 9.35121 13.6963 9.79358C14.479 10.2353 15.2676 10.585 16.0458 11.0314C16.6247 10.6073 17.5304 10.4091 17.9729 9.88152Z" fill="black"/>
</svg>
